<?xml version="1.0" standalone="no"?>
<!DOCTYPE svg PUBLIC "-//W3C//DTD SVG 20010904//EN"
 "http://www.w3.org/TR/2001/REC-SVG-20010904/DTD/svg10.dtd">
<svg version="1.0" xmlns="http://www.w3.org/2000/svg"
 width="300.000000pt" height="300.000000pt" viewBox="0 0 300.000000 300.000000"
 preserveAspectRatio="xMidYMid meet">

<g transform="translate(0.000000,300.000000) scale(0.100000,-0.100000)"
fill="#000000" stroke="none">
<path d="M722 2156 c-166 -69 -332 -180 -424 -286 -51 -58 -112 -173 -127
-240 -17 -73 -13 -181 9 -251 49 -160 201 -316 420 -431 80 -42 318 -133 327
-125 2 2 -18 12 -44 22 -135 50 -305 151 -400 239 -201 183 -268 440 -171 656
71 158 222 302 427 407 102 52 96 55 -17 9z"/>
<path d="M793 2146 c-145 -65 -136 -54 -134 -181 0 -60 4 -112 9 -116 18 -16
224 -81 232 -73 5 5 32 54 60 109 66 127 107 192 126 199 31 12 6 29 -97 66
l-106 37 -90 -41z"/>
<path d="M2095 2159 c-44 -17 -81 -32 -83 -33 -1 -2 15 -25 37 -52 21 -27 41
-58 45 -69 3 -11 26 -65 50 -120 51 -115 36 -110 194 -74 l93 21 -3 122 -3
121 -115 57 c-63 32 -119 58 -125 57 -5 0 -46 -14 -90 -30z"/>
<path d="M2330 2155 c0 -3 27 -19 61 -35 151 -77 302 -223 364 -353 82 -174
71 -363 -32 -529 -70 -114 -202 -230 -355 -314 -96 -52 -70 -49 47 7 228 108
403 275 463 441 24 67 28 204 7 274 -54 186 -210 345 -463 473 -52 27 -92 42
-92 36z"/>
<path d="M1658 2093 c6 -2 18 -2 25 0 6 3 1 5 -13 5 -14 0 -19 -2 -12 -5z"/>
<path d="M1352 2066 c-15 -20 -30 -26 -78 -29 l-59 -3 62 -2 c58 -2 63 -4 69
-27 6 -26 6 -26 21 -5 12 17 18 19 29 9 9 -7 14 -8 14 -1 0 22 -13 42 -26 42
-17 0 -19 27 -1 33 8 4 8 6 0 6 -6 1 -20 -10 -31 -23z"/>
<path d="M1701 2086 c2 -2 22 -6 44 -9 28 -5 34 -4 20 3 -19 8 -73 14 -64 6z"/>
<path d="M1512 2048 c-17 -18 -23 -19 -36 -8 -14 11 -16 9 -16 -16 0 -21 3
-25 9 -15 8 12 16 13 51 2 23 -7 45 -10 48 -7 3 3 0 6 -6 6 -7 0 -12 11 -12
24 0 34 -13 39 -38 14z"/>
<path d="M1833 2054 c29 -10 44 -11 59 -3 11 6 17 13 15 16 -3 2 -14 0 -24 -5
-10 -5 -27 -6 -38 -1 -11 4 -27 8 -35 8 -8 0 2 -7 23 -15z"/>
<path d="M1439 1973 c-13 -16 -12 -17 4 -4 9 7 17 15 17 17 0 8 -8 3 -21 -13z"/>
<path d="M1706 1942 c39 -21 88 -52 110 -68 54 -42 77 -52 34 -16 -37 33 -37
36 0 51 25 10 25 10 -5 10 -17 1 -68 15 -115 31 -47 17 -87 30 -90 30 -3 0 27
-17 66 -38z"/>
<path d="M1975 1955 l-30 -24 36 -1 c28 0 38 -5 47 -25 7 -15 8 -27 2 -30 -6
-4 -10 -1 -10 4 0 18 -44 7 -55 -14 -6 -11 -24 -27 -40 -35 -29 -14 -30 -16
-18 -50 7 -19 12 -28 12 -19 1 20 59 66 100 80 20 7 36 7 49 0 15 -8 11 6 -20
64 -22 41 -40 75 -41 75 -1 0 -15 -11 -32 -25z"/>
<path d="M1058 1872 c-12 -30 -12 -39 -3 -36 7 3 42 -7 78 -21 47 -19 71 -24
84 -17 28 14 68 0 71 -26 3 -19 -1 -22 -28 -22 -17 0 -42 7 -55 16 -24 15 -25
15 -25 -4 0 -23 55 -47 83 -36 11 4 17 1 17 -9 0 -19 38 -47 63 -47 10 0 25
-7 33 -15 9 -8 27 -15 40 -15 14 0 38 -10 54 -21 21 -16 36 -20 57 -15 15 4
47 6 70 6 23 0 44 4 48 10 3 5 18 10 32 10 15 0 35 8 45 17 11 10 34 22 51 28
18 5 36 20 42 33 6 14 19 22 35 22 23 1 23 2 -8 15 -26 11 -32 19 -27 34 4 14
-2 21 -27 31 -18 7 -48 27 -65 44 -56 52 -36 9 27 -59 33 -35 60 -67 60 -69 0
-3 -9 -10 -20 -16 -16 -8 -31 -6 -67 10 -26 11 -56 28 -68 38 -11 9 -3 -2 18
-25 48 -50 47 -79 -2 -76 -23 1 -44 12 -67 34 -19 18 -34 30 -34 26 0 -4 9
-16 20 -27 12 -12 18 -26 14 -32 -5 -8 -11 -6 -19 5 -10 13 -13 12 -22 -14
-11 -29 -38 -47 -51 -35 -3 4 0 11 8 16 10 7 11 10 3 10 -18 0 -16 35 3 50 8
8 20 23 26 34 6 12 -9 2 -32 -21 -34 -33 -51 -43 -77 -43 -18 0 -33 5 -33 10
0 6 8 10 18 10 10 0 28 7 40 16 21 15 22 17 6 28 -21 16 -11 34 30 52 26 11
27 13 9 14 -12 0 -33 11 -47 25 -23 23 -32 25 -121 25 -61 0 -108 5 -130 15
-20 8 -56 15 -81 16 -35 2 -48 8 -53 22 -6 16 -10 12 -23 -21z m398 -76 c8
-21 -13 -54 -46 -71 -36 -19 -60 -19 -60 -1 0 8 -7 16 -15 20 -28 10 -15 32
28 48 53 21 86 22 93 4z"/>
<path d="M1783 1603 c-25 -5 -30 -18 -12 -29 14 -8 267 -16 291 -8 12 4 16 10
10 20 -6 11 -37 15 -138 18 -71 1 -139 1 -151 -1z"/>
<path d="M2322 1536 c-30 -8 -66 -22 -80 -33 -26 -19 -27 -24 -30 -130 -3
-123 1 -132 75 -159 49 -17 207 -17 256 0 72 26 77 36 77 156 0 118 -3 126
-71 154 -52 22 -165 28 -227 12z m127 -55 c11 -7 15 -34 15 -111 1 -107 -4
-120 -49 -120 -38 0 -45 19 -45 120 0 61 4 100 12 108 14 14 47 15 67 3z"/>
<path d="M520 1402 c0 -131 1 -140 23 -159 70 -64 291 -62 362 3 25 23 25 25
21 151 -2 70 -5 131 -5 136 -1 4 -35 7 -76 7 l-75 0 0 -140 0 -140 -26 -6
c-14 -4 -36 -2 -50 5 -24 10 -24 12 -24 146 l0 135 -75 0 -75 0 0 -138z"/>
<path d="M1010 1364 l0 -175 63 2 c34 1 68 4 75 7 8 3 12 28 12 78 0 41 3 74
8 73 4 0 29 -34 55 -75 34 -53 55 -74 70 -75 22 -2 86 -1 100 0 4 1 7 78 7
171 l0 170 -60 0 -60 0 0 -55 c0 -30 -4 -55 -9 -55 -6 0 -31 25 -58 55 l-48
55 -77 0 -78 0 0 -176z"/>
<path d="M1480 1371 l0 -169 53 -4 c28 -2 64 -2 80 0 l27 4 0 169 0 169 -80 0
-80 0 0 -169z"/>
<path d="M1762 1373 c-22 -93 -39 -169 -39 -170 4 -4 56 -6 109 -5 51 2 57 4
60 25 2 17 10 22 33 22 23 0 31 -5 33 -22 3 -22 8 -23 89 -23 64 0 84 3 81 13
-3 6 -23 83 -44 170 l-39 157 -121 0 -122 0 -40 -167z m182 -25 c7 -47 6 -48
-18 -48 -30 0 -33 15 -14 87 13 52 20 43 32 -39z"/>
<path d="M568 1153 c-28 -7 -21 -22 17 -40 36 -17 46 -33 20 -33 -8 0 -15 5
-15 10 0 6 -9 10 -21 10 -30 0 -18 -23 17 -33 31 -9 84 5 84 23 0 5 -16 16
-36 25 -21 9 -33 19 -29 26 5 8 10 8 18 0 13 -13 47 -15 47 -2 0 17 -60 25
-102 14z"/>
<path d="M704 1146 c-3 -8 -4 -27 -2 -42 2 -23 10 -30 38 -37 22 -5 47 -4 63
2 23 9 27 16 27 51 0 36 -2 40 -25 40 -22 0 -25 -4 -25 -40 0 -29 -4 -40 -15
-40 -11 0 -15 11 -15 40 0 34 -3 40 -20 40 -11 0 -23 -6 -26 -14z"/>
<path d="M860 1110 c0 -43 3 -50 19 -50 13 0 21 8 23 23 2 17 11 23 36 25 36
4 54 28 31 43 -8 5 -35 9 -61 9 l-48 0 0 -50z m75 30 c3 -6 -1 -13 -10 -16
-19 -8 -30 0 -20 15 8 14 22 14 30 1z"/>
<path d="M1012 1113 l3 -48 48 -1 c26 -1 47 2 47 7 0 5 -11 9 -25 9 -34 0 -32
28 3 33 l27 4 -28 2 c-34 1 -32 22 4 32 17 5 8 7 -29 8 l-53 1 3 -47z"/>
<path d="M1142 1113 c2 -40 6 -48 23 -48 12 0 21 9 25 25 l6 25 15 -25 c20
-35 48 -36 47 -1 -1 14 2 33 6 42 9 20 -18 29 -82 29 l-43 0 3 -47z m76 19 c2
-7 -3 -12 -12 -12 -9 0 -16 7 -16 16 0 17 22 14 28 -4z"/>
<path d="M1300 1116 c0 -28 5 -46 14 -49 18 -7 26 1 26 25 0 25 15 23 27 -5 6
-13 19 -24 28 -24 9 0 22 11 28 24 13 28 27 30 27 3 0 -13 7 -20 20 -20 17 0
20 7 20 45 0 44 0 45 -34 45 -24 0 -38 -7 -48 -22 l-15 -22 -12 22 c-9 16 -21
22 -46 22 -35 0 -35 0 -35 -44z"/>
<path d="M1520 1116 l0 -44 43 -4 c23 -3 46 -1 52 3 5 5 -2 9 -18 9 -37 0 -37
30 1 31 27 1 27 1 3 8 -35 9 -37 29 -4 34 16 2 6 5 -24 6 l-53 1 0 -44z"/>
<path d="M1650 1115 c0 -41 2 -45 25 -45 18 0 25 5 25 20 0 11 4 20 9 20 5 0
11 -9 14 -20 3 -12 14 -20 27 -20 17 0 21 5 17 19 -2 10 -1 25 4 32 14 24 -11
39 -67 39 l-54 0 0 -45z m80 20 c0 -8 -7 -15 -15 -15 -8 0 -15 7 -15 15 0 8 7
15 15 15 8 0 15 -7 15 -15z"/>
<path d="M1822 1151 c-8 -5 -12 -22 -10 -42 l3 -34 54 0 c35 0 56 5 59 13 5
15 -30 16 -45 1 -16 -16 -33 -2 -33 26 0 28 17 42 33 26 13 -13 47 -15 47 -2
0 20 -81 29 -108 12z"/>
<path d="M1986 1148 c-2 -7 -9 -27 -14 -44 l-10 -31 63 0 62 0 -12 41 c-11 37
-15 41 -49 44 -23 2 -38 -1 -40 -10z m41 -50 c-3 -8 -6 -5 -6 6 -1 11 2 17 5
13 3 -3 4 -12 1 -19z"/>
<path d="M2120 1115 l0 -46 58 3 57 3 0 40 0 40 -57 3 -58 3 0 -46z m76 9 c7
-27 -7 -50 -25 -40 -12 8 -15 49 -4 59 13 13 23 7 29 -19z"/>
<path d="M2283 1153 c-19 -7 -16 -70 3 -77 27 -10 89 -7 102 6 7 7 12 21 12
33 0 12 -5 26 -12 33 -12 12 -81 15 -105 5z m67 -38 c0 -24 -5 -35 -15 -35
-10 0 -15 11 -15 35 0 24 5 35 15 35 10 0 15 -11 15 -35z"/>
<path d="M2437 1153 c-14 -13 -6 -24 28 -39 19 -8 35 -19 35 -24 0 -13 -17
-13 -25 0 -3 6 -18 10 -32 10 -21 0 -24 -2 -13 -15 19 -23 120 -18 120 6 0 5
-16 17 -35 26 -46 22 -45 33 3 27 28 -4 33 -3 22 5 -16 12 -93 15 -103 4z"/>
<path d="M922 999 c3 -8 -1 -29 -8 -46 -14 -36 -9 -43 12 -15 16 21 18 58 3
68 -7 4 -10 1 -7 -7z"/>
<path d="M1496 983 c-4 -16 -9 -36 -12 -45 -3 -10 -1 -18 4 -18 5 0 12 12 15
28 3 15 9 35 12 45 4 9 3 17 -3 17 -5 0 -13 -12 -16 -27z"/>
<path d="M1917 1003 c-11 -18 -25 -83 -18 -83 10 0 36 78 29 86 -3 3 -8 2 -11
-3z"/>
<path d="M2061 971 c-7 -23 -10 -45 -8 -48 7 -7 29 65 24 80 -2 6 -10 -8 -16
-32z"/>
<path d="M860 981 c-13 -25 -13 -61 0 -61 6 0 10 9 10 21 0 11 5 29 10 40 7
12 7 19 1 19 -6 0 -15 -9 -21 -19z"/>
<path d="M1049 998 c-6 -12 -3 -78 3 -78 4 0 8 18 8 40 0 33 -5 50 -11 38z"/>
<path d="M1100 956 c-12 -33 -12 -36 -1 -36 10 0 25 50 17 58 -3 2 -10 -7 -16
-22z"/>
<path d="M1137 956 c-5 -15 -6 -31 -3 -34 8 -8 18 25 14 45 -3 13 -6 10 -11
-11z"/>
<path d="M1178 974 c-5 -4 -8 -19 -8 -33 1 -23 2 -24 11 -8 11 19 9 53 -3 41z"/>
<path d="M1220 956 c-12 -33 -12 -36 -1 -36 9 0 22 52 15 59 -2 2 -8 -8 -14
-23z"/>
<path d="M1381 968 c0 -9 -4 -25 -7 -35 -5 -14 -4 -15 5 -7 7 7 11 22 8 35 -2
13 -5 16 -6 7z"/>
<path d="M1568 950 c-4 -24 -2 -27 9 -19 15 13 17 35 4 43 -5 3 -11 -8 -13
-24z"/>
<path d="M1747 973 c-4 -3 -7 -11 -7 -17 0 -6 5 -5 12 2 6 6 9 14 7 17 -3 3
-9 2 -12 -2z"/>
<path d="M1777 953 c-5 -26 -2 -42 7 -32 9 11 15 59 7 59 -5 0 -11 -12 -14
-27z"/>
<path d="M1821 962 c-13 -25 -14 -42 -2 -42 8 0 23 52 16 58 -2 2 -8 -5 -14
-16z"/>
<path d="M1938 948 c-5 -28 -4 -29 9 -13 15 22 16 32 4 39 -5 3 -11 -8 -13
-26z"/>
<path d="M2018 957 c-3 -19 -2 -25 4 -19 6 6 8 18 6 28 -3 14 -5 12 -10 -9z"/>
<path d="M2198 957 c-3 -19 -2 -25 4 -19 6 6 8 18 6 28 -3 14 -5 12 -10 -9z"/>
<path d="M1260 955 c0 -8 2 -15 4 -15 2 0 6 7 10 15 3 8 1 15 -4 15 -6 0 -10
-7 -10 -15z"/>
<path d="M1301 954 c0 -11 3 -14 6 -6 3 7 2 16 -1 19 -3 4 -6 -2 -5 -13z"/>
<path d="M1342 958 c-14 -14 -16 -38 -3 -38 5 0 11 11 13 25 6 29 6 29 -10 13z"/>
<path d="M1457 963 c-9 -9 -9 -43 1 -43 4 0 8 11 8 25 2 27 1 29 -9 18z"/>
<path d="M1530 951 c-6 -11 -6 -22 -1 -25 5 -3 11 5 13 19 6 30 2 32 -12 6z"/>
<path d="M1650 964 c0 -5 7 -18 15 -28 12 -16 15 -17 15 -4 0 8 -7 21 -15 28
-8 7 -15 9 -15 4z"/>
<path d="M1982 958 c-14 -14 -16 -38 -3 -38 5 0 11 11 13 25 6 29 6 29 -10 13z"/>
<path d="M2100 964 c0 -5 7 -18 15 -28 12 -16 15 -17 15 -4 0 8 -7 21 -15 28
-8 7 -15 9 -15 4z"/>
<path d="M2162 958 c-14 -14 -16 -38 -3 -38 5 0 11 11 13 25 6 29 6 29 -10 13z"/>
<path d="M1705 947 c-4 -10 -5 -21 -1 -24 10 -10 18 4 13 24 -4 17 -4 17 -12
0z"/>
<path d="M1260 920 c0 -4 9 -10 20 -13 11 -3 20 -2 20 3 0 4 -9 10 -20 13 -11
3 -20 2 -20 -3z"/>
</g>
</svg>
