<?xml version="1.0" standalone="no"?>
<!DOCTYPE svg PUBLIC "-//W3C//DTD SVG 20010904//EN"
 "http://www.w3.org/TR/2001/REC-SVG-20010904/DTD/svg10.dtd">
<svg version="1.0" xmlns="http://www.w3.org/2000/svg"
 width="190.000000pt" height="129.000000pt" viewBox="0 0 190.000000 129.000000"
 preserveAspectRatio="xMidYMid meet">

<g transform="translate(0.000000,129.000000) scale(0.100000,-0.100000)"
fill="#000000" stroke="none">
<path d="M210 922 l0 -311 56 -16 c31 -9 58 -14 60 -12 2 2 12 26 22 53 11 33
33 64 64 93 42 38 50 42 75 34 19 -6 29 -18 31 -34 7 -48 37 -59 93 -35 13 6
21 -2 35 -31 15 -31 25 -39 51 -41 20 -2 37 -12 47 -28 12 -18 25 -24 51 -24
19 0 35 -4 35 -8 0 -5 12 -14 26 -21 22 -10 31 -9 51 4 20 13 30 14 59 5 29
-10 38 -9 53 4 10 9 27 16 39 16 12 0 27 9 34 20 8 12 24 20 40 20 18 0 33 8
44 25 10 15 26 25 39 25 19 0 29 12 49 54 19 40 36 60 68 79 79 46 82 45 96
-23 12 -57 14 -60 42 -60 21 0 30 -6 36 -22 13 -45 34 -58 91 -58 l53 0 0 295
0 295 -22 -1 c-49 -1 -212 -37 -216 -48 -2 -6 -17 -11 -33 -11 -22 0 -29 -5
-29 -19 0 -28 -60 -31 -130 -8 -60 20 -228 46 -300 47 -28 0 -61 -8 -85 -21
-38 -20 -272 -72 -286 -63 -4 2 -5 13 -2 23 4 16 -3 22 -39 32 -23 7 -50 18
-58 24 -8 7 -55 20 -105 29 -49 10 -100 20 -112 23 l-23 5 0 -310z m820 231
c48 -4 115 -16 154 -30 39 -13 93 -23 123 -23 29 0 53 -2 53 -4 0 -3 11 -56
25 -120 14 -64 25 -120 25 -125 0 -5 -12 -12 -27 -16 -16 -3 -44 -17 -64 -30
-41 -27 -49 -24 -49 17 0 48 -25 84 -72 103 -24 9 -71 37 -105 61 -34 24 -72
44 -85 44 -13 1 -40 7 -61 15 -35 12 -43 11 -80 -6 -50 -22 -135 -25 -163 -4
-18 14 -18 14 11 15 41 0 80 27 65 45 -17 20 112 79 150 68 8 -2 53 -7 100
-10z m-522 -18 c23 -7 23 -10 17 -68 -10 -83 -39 -197 -64 -245 -22 -44 -71
-105 -78 -98 -3 2 5 37 16 78 27 96 51 238 51 300 0 53 -4 51 58 33z m931 -22
c57 -124 121 -318 121 -367 0 -13 -11 -16 -53 -16 l-53 0 -38 183 c-21 100
-40 192 -43 205 -4 19 -1 22 24 22 23 0 33 -7 42 -27z m-772 -31 c-20 -21 -8
-46 33 -67 40 -20 100 -19 161 4 46 18 54 18 91 5 22 -8 49 -14 60 -14 10 0
42 -18 71 -39 29 -22 73 -49 99 -60 54 -23 64 -38 74 -108 8 -64 -16 -123 -51
-123 -20 0 -23 6 -27 64 -5 63 -6 64 -77 133 -39 39 -71 64 -71 55 0 -8 29
-42 63 -76 l64 -61 6 -72 c7 -70 6 -73 -18 -89 -14 -9 -28 -14 -31 -11 -3 3
-8 31 -11 63 -6 55 -10 63 -72 131 -36 39 -69 69 -74 66 -5 -3 23 -38 62 -78
71 -72 71 -73 71 -128 0 -67 -7 -87 -30 -87 -12 0 -25 17 -40 55 -16 39 -37
67 -77 101 -29 25 -57 43 -61 39 -7 -6 12 -25 71 -71 26 -21 67 -100 67 -130
0 -8 -7 -17 -15 -20 -19 -8 -65 21 -65 40 0 24 -34 57 -60 59 -14 1 -37 12
-50 25 -18 17 -33 22 -55 19 -22 -3 -34 2 -48 19 -19 24 -51 31 -76 15 -9 -6
-45 2 -101 21 l-88 29 23 52 c13 29 31 90 41 137 10 47 19 87 20 89 2 2 32 9
66 16 35 7 65 13 67 14 2 0 -3 -7 -12 -17z m97 9 c7 -11 -17 -21 -52 -21 -25
0 -25 1 -6 15 22 16 50 19 58 6z m-176 -358 c29 -7 28 -17 -5 -32 -29 -13 -37
-8 -48 28 -6 21 -5 23 11 16 11 -4 29 -10 42 -12z m131 -17 c25 -26 21 -70 -6
-81 -21 -7 -30 2 -15 17 21 21 14 56 -15 72 -25 13 -25 15 -7 16 11 0 31 -11
43 -24z m-23 -17 c3 -5 0 -18 -7 -31 -11 -21 -12 -21 -25 -3 -21 29 -18 54 6
48 11 -3 23 -9 26 -14z m126 -26 c13 -16 13 -23 2 -50 -7 -17 -18 -35 -24 -38
-17 -10 -26 3 -12 17 19 19 14 55 -8 61 -11 3 -20 10 -20 16 0 18 45 13 62 -6z
m-32 -38 c0 -16 -25 -37 -33 -28 -4 3 -7 16 -7 29 0 17 4 21 20 17 11 -3 20
-11 20 -18z m124 -18 l21 -29 -25 -20 -25 -20 -3 27 c-2 17 -11 29 -23 32 -22
6 -24 14 -7 31 18 18 38 11 62 -21z m-60 -23 c16 -6 23 -34 8 -34 -10 0 -32
22 -32 32 0 10 3 10 24 2z"/>
<path d="M1118 510 c-47 -14 -53 -22 -25 -34 l25 -11 -27 -68 c-15 -37 -31
-70 -34 -74 -4 -3 -7 30 -7 75 l0 82 -85 0 -85 0 0 -100 0 -100 168 0 c160 0
168 1 186 22 l19 22 10 -22 c9 -20 17 -22 99 -22 48 0 88 1 88 3 0 1 -20 43
-44 92 -45 93 -46 103 -2 118 6 2 8 7 5 11 -10 10 -260 16 -291 6z m-145 -193
l52 -3 -57 -2 -58 -2 2 78 2 77 3 -72 4 -72 52 -4z m387 99 c0 -5 -7 -1 -15
10 -8 10 -14 24 -14 29 0 6 6 1 14 -9 8 -11 15 -24 15 -30z m-192 27 c-9 -2
-20 -13 -23 -24 -4 -11 -9 -18 -12 -16 -10 10 18 47 35 46 16 -1 16 -2 0 -6z
m65 -8 c-3 -9 -8 -14 -10 -11 -3 3 -2 9 2 15 9 16 15 13 8 -4z m61 -60 c4 -19
3 -25 -3 -15 -4 8 -11 29 -15 45 -4 19 -3 25 3 15 4 -8 11 -28 15 -45z m73 3
c-3 -8 -6 -5 -6 6 -1 11 2 17 5 13 3 -3 4 -12 1 -19z m-246 -15 c-12 -20 -14
-14 -5 12 4 9 9 14 11 11 3 -2 0 -13 -6 -23z m86 -5 c-3 -8 -6 -5 -6 6 -1 11
2 17 5 13 3 -3 4 -12 1 -19z m192 -25 c11 -23 11 -23 -45 -23 -32 0 -54 3 -50
7 3 4 25 6 47 4 38 -2 40 -1 34 21 -9 27 -3 23 14 -9z m-244 -13 c25 0 45 5
48 13 3 7 6 5 6 -5 1 -15 -8 -18 -59 -18 -52 0 -59 2 -53 17 4 11 8 12 11 5 2
-7 22 -12 47 -12z"/>
<path d="M1575 482 c-119 -7 -135 -19 -135 -102 0 -86 17 -95 175 -95 87 0
128 4 150 15 28 14 30 20 33 74 5 87 -13 100 -138 108 -25 2 -63 2 -85 0z m15
-37 c-7 -9 -11 -37 -8 -75 l3 -60 -35 1 c-30 2 -31 3 -7 6 26 4 27 7 27 58 0
59 7 85 22 85 6 0 5 -6 -2 -15z m77 9 c-3 -3 -12 -4 -19 -1 -8 3 -5 6 6 6 11
1 17 -2 13 -5z m-140 -10 c-3 -3 -12 -4 -19 -1 -8 3 -5 6 6 6 11 1 17 -2 13
-5z m210 0 c-3 -3 -12 -4 -19 -1 -8 3 -5 6 6 6 11 1 17 -2 13 -5z m-257 -61
c-4 -56 -5 -57 -8 -14 -3 38 2 71 10 71 2 0 1 -26 -2 -57z m192 -24 c2 -26 -1
-46 -7 -46 -6 0 -8 26 -6 66 5 67 8 62 13 -20z m98 66 c0 -8 -2 -15 -4 -15 -2
0 -6 7 -10 15 -3 8 -1 15 4 15 6 0 10 -7 10 -15z m-140 -45 c0 -27 -4 -50 -10
-50 -5 0 -10 23 -10 50 0 28 5 50 10 50 6 0 10 -22 10 -50z m105 -60 c-11 -5
-27 -9 -35 -9 -9 0 -8 4 5 9 11 5 27 9 35 9 9 0 8 -4 -5 -9z"/>
<path d="M102 398 c3 -81 4 -83 33 -97 40 -20 195 -27 261 -12 34 8 58 20 64
31 6 10 10 50 10 89 l0 71 -90 0 -89 0 -4 -77 -3 -78 -2 78 -2 77 -90 0 -91 0
3 -82z m61 -71 c7 -2 5 -3 -3 -3 -12 1 -15 16 -16 66 l0 65 3 -62 c2 -36 9
-63 16 -66z m84 111 c-3 -8 -6 -5 -6 6 -1 11 2 17 5 13 3 -3 4 -12 1 -19z
m189 -104 c-3 -8 -13 -13 -23 -13 -17 1 -17 2 0 6 14 4 17 17 19 71 l2 67 3
-59 c2 -32 2 -65 -1 -72z m-99 94 c-3 -8 -6 -5 -6 6 -1 11 2 17 5 13 3 -3 4
-12 1 -19z m0 -80 c-2 -13 -4 -3 -4 22 0 25 2 35 4 23 2 -13 2 -33 0 -45z
m-89 12 c-2 -22 1 -42 7 -44 5 -2 -8 -4 -30 -4 -32 0 -35 1 -15 7 20 5 26 14
28 44 2 20 6 37 9 37 3 0 3 -18 1 -40z m135 -47 c-7 -2 -19 -2 -25 0 -7 3 -2
5 12 5 14 0 19 -2 13 -5z"/>
<path d="M490 380 l0 -100 75 0 c73 0 75 1 75 25 0 32 7 31 32 0 19 -24 25
-26 97 -23 l76 3 3 98 3 97 -76 0 c-75 0 -80 -3 -76 -37 3 -19 -7 -16 -37 12
-23 22 -36 25 -99 25 l-73 0 0 -100z m51 5 l-2 -65 35 0 c28 0 35 4 39 23 4
19 4 18 6 -5 1 -27 -1 -28 -44 -28 l-45 0 0 77 c0 42 3 73 7 70 3 -4 5 -36 4
-72z m139 18 c30 -32 43 -47 29 -35 -35 31 -50 10 -18 -24 18 -19 33 -24 70
-24 l48 0 4 73 3 72 2 -77 2 -78 -52 0 c-45 0 -57 4 -85 32 -28 27 -30 33 -17
43 14 10 12 15 -15 38 -27 22 -38 37 -28 37 1 0 27 -26 57 -57z m57 -15 c-2
-13 -4 -3 -4 22 0 25 2 35 4 23 2 -13 2 -33 0 -45z m-92 12 c3 -6 -1 -7 -9 -4
-18 7 -21 14 -7 14 6 0 13 -4 16 -10z"/>
<path d="M117 253 c-14 -13 -6 -22 23 -28 44 -10 47 -25 4 -18 -27 4 -35 3
-30 -5 4 -7 29 -12 57 -12 37 0 49 4 49 15 0 9 -12 18 -30 22 -16 3 -30 9 -30
14 0 5 14 6 32 2 22 -4 29 -3 24 5 -8 13 -88 17 -99 5z"/>
<path d="M242 228 c3 -33 3 -33 58 -33 l55 0 2 33 c1 28 -2 32 -23 32 -20 0
-24 -5 -24 -30 0 -16 -4 -30 -10 -30 -5 0 -10 14 -10 30 0 26 -4 30 -26 30
-23 0 -25 -3 -22 -32z"/>
<path d="M380 225 c0 -31 3 -35 25 -35 16 0 25 6 25 15 0 9 9 15 23 15 29 0
37 7 30 26 -3 9 -21 14 -54 14 l-49 0 0 -35z m65 15 c3 -5 1 -10 -4 -10 -6 0
-11 5 -11 10 0 6 2 10 4 10 3 0 8 -4 11 -10z"/>
<path d="M500 225 l0 -35 48 1 c26 1 37 4 25 6 -27 5 -30 20 -5 26 16 4 16 5
0 6 -26 2 -22 19 5 24 12 2 1 5 -25 6 l-48 1 0 -35z"/>
<path d="M610 226 c0 -29 4 -36 20 -36 11 0 20 7 20 15 0 8 5 15 10 15 6 0 10
-7 10 -15 0 -9 9 -15 24 -15 21 0 23 4 21 33 -2 31 -4 32 -54 35 l-51 3 0 -35z
m60 14 c0 -5 -4 -10 -10 -10 -5 0 -10 5 -10 10 0 6 5 10 10 10 6 0 10 -4 10
-10z"/>
<path d="M740 225 c0 -28 4 -35 20 -35 12 0 20 7 20 18 1 16 1 16 14 0 7 -10
18 -18 24 -18 6 0 16 8 21 18 10 16 10 16 11 0 0 -11 8 -18 20 -18 16 0 20 7
20 35 0 32 -2 35 -30 35 -16 0 -33 -7 -38 -16 -8 -15 -10 -15 -15 0 -4 10 -18
16 -37 16 -28 0 -30 -3 -30 -35z"/>
<path d="M920 225 c0 -35 0 -35 43 -34 23 1 32 4 20 6 -13 2 -23 8 -23 13 0 5
10 11 23 13 l22 4 -22 2 c-13 0 -23 5 -23 10 0 5 10 12 23 14 12 2 3 5 -20 6
-43 1 -43 1 -43 -34z"/>
<path d="M1020 226 c0 -32 3 -36 25 -36 16 0 25 6 25 16 0 8 5 12 10 9 6 -4 8
-11 5 -16 -4 -5 5 -9 19 -9 23 0 25 4 23 33 -2 31 -4 32 -55 35 l-52 3 0 -35z"/>
<path d="M1154 246 c-14 -36 0 -51 50 -54 29 -2 53 2 60 9 8 9 2 10 -26 6 -35
-5 -38 -4 -38 19 0 13 5 24 10 24 6 0 10 -4 10 -10 0 -5 12 -10 26 -10 16 0
24 5 22 13 -7 19 -107 22 -114 3z"/>
<path d="M1291 229 c-6 -18 -11 -33 -11 -34 0 -2 27 -3 61 -3 52 0 59 2 54 17
-4 9 -10 24 -12 34 -4 12 -16 17 -43 17 -34 0 -39 -4 -49 -31z m59 -9 c0 -5
-4 -10 -10 -10 -5 0 -10 5 -10 10 0 6 5 10 10 10 6 0 10 -4 10 -10z"/>
<path d="M1414 233 c2 -15 4 -32 5 -36 0 -4 25 -7 54 -5 50 3 52 4 52 33 0 29
-1 30 -57 33 l-57 3 3 -28z m66 -8 c0 -14 -4 -25 -10 -25 -5 0 -10 11 -10 25
0 14 5 25 10 25 6 0 10 -11 10 -25z"/>
<path d="M1554 246 c-14 -37 0 -51 54 -54 l53 -3 -3 33 c-3 32 -5 33 -51 36
-35 2 -49 -1 -53 -12z m66 -21 c0 -14 -4 -25 -10 -25 -5 0 -10 11 -10 25 0 14
5 25 10 25 6 0 10 -11 10 -25z"/>
<path d="M1687 253 c-14 -13 -6 -22 23 -28 44 -10 47 -25 3 -18 -29 4 -35 3
-27 -6 13 -15 109 -11 109 4 0 6 -15 14 -32 20 -42 12 -43 26 -1 18 22 -4 29
-3 24 5 -8 13 -88 17 -99 5z"/>
</g>
</svg>
